<svg width="24" height="24" viewBox="0 0 24 24" fill="none" xmlns="http://www.w3.org/2000/svg">
<path d="M16.2471 15.6348C15.9733 17.5518 15.493 19.2371 14.8809 20.5635C14.3419 21.7311 13.7762 22.4771 13.2578 22.9258C12.8449 22.9728 12.4255 23 12 23C11.5742 23 11.1544 22.9729 10.7412 22.9258C10.223 22.477 9.65786 21.7307 9.11914 20.5635C8.50701 19.2371 8.02569 17.5518 7.75195 15.6348C9.0652 15.7056 10.4908 15.75 12 15.75C13.5088 15.75 14.9341 15.7056 16.2471 15.6348Z" fill="#424138"/>
<path d="M1.41992 15.0098C2.61875 15.192 4.2608 15.391 6.22559 15.5361C6.58647 18.3085 7.36067 20.7048 8.39551 22.3926C5.02489 21.2237 2.40062 18.4639 1.41992 15.0098Z" fill="#424138"/>
<path d="M22.5791 15.0098C21.5983 18.464 18.9745 21.2239 15.6035 22.3926C16.6385 20.7048 17.4125 18.3087 17.7734 15.5361C19.7381 15.3911 21.3802 15.192 22.5791 15.0098Z" fill="#424138"/>
<path d="M12 9.75C13.5781 9.75 15.0609 9.79956 16.4141 9.87695C16.4692 10.5635 16.5 11.2727 16.5 12C16.5 12.727 16.4691 13.4359 16.4141 14.1221C15.0609 14.1995 13.5781 14.25 12 14.25C10.4215 14.25 8.93839 14.1995 7.58496 14.1221C7.52991 13.4359 7.5 12.7269 7.5 12C7.5 11.2727 7.52986 10.5634 7.58496 9.87695C8.93837 9.79953 10.4215 9.75 12 9.75Z" fill="#424138"/>
<path d="M6.07227 9.97754C6.02475 10.6366 6 11.3121 6 12C6 12.6876 6.0248 13.3627 6.07227 14.0215C3.93601 13.856 2.21992 13.6272 1.09668 13.4395C1.03507 12.9682 1 12.488 1 12C1 11.5116 1.03499 11.0311 1.09668 10.5596C2.21993 10.3718 3.93608 10.143 6.07227 9.97754Z" fill="#424138"/>
<path d="M17.9268 9.97754C20.0628 10.143 21.7789 10.3718 22.9023 10.5596C22.964 11.0312 23 11.5116 23 12C23 12.4881 22.964 12.9682 22.9023 13.4395C21.7789 13.6272 20.0629 13.856 17.9268 14.0215C17.9742 13.3627 18 12.6876 18 12C18 11.312 17.9743 10.6366 17.9268 9.97754Z" fill="#424138"/>
<path d="M8.39551 1.60645C7.36057 3.29405 6.58657 5.69054 6.22559 8.46289C4.26085 8.608 2.61875 8.80707 1.41992 8.98926C2.40085 5.53548 5.02504 2.77516 8.39551 1.60645Z" fill="#424138"/>
<path d="M15.6035 1.60645C18.9743 2.77496 21.598 5.5353 22.5791 8.98926C21.3802 8.80708 19.7381 8.60796 17.7734 8.46289C17.4124 5.69035 16.6386 3.29405 15.6035 1.60645Z" fill="#424138"/>
<path d="M12 1C12.4254 1 12.845 1.02624 13.2578 1.07324C13.7763 1.52188 14.3418 2.26851 14.8809 3.43652C15.4929 4.76266 15.9733 6.44767 16.2471 8.36426C14.9341 8.29345 13.5088 8.25 12 8.25C10.4908 8.25 9.06518 8.29342 7.75195 8.36426C8.02571 6.44761 8.50711 4.76269 9.11914 3.43652C9.65803 2.26893 10.2229 1.52194 10.7412 1.07324C11.1544 1.02617 11.5742 1 12 1Z" fill="#424138"/>
</svg>
