<svg width="24" height="24" viewBox="0 0 24 24" fill="none" xmlns="http://www.w3.org/2000/svg">
<path fill-rule="evenodd" clip-rule="evenodd" d="M12 2C21.4444 2 22 2.55556 22 12C22 21.4444 21.4444 22 12 22C2.55556 22 2 21.4444 2 12C2 2.55556 2.55556 2 12 2ZM6.5 15C5.94772 15 5.5 15.4477 5.5 16C5.5 16.5523 5.94772 17 6.5 17H8C8.55228 17 9 16.5523 9 16C9 15.4477 8.55228 15 8 15H6.5ZM11 15C10.4477 15 10 15.4477 10 16C10 16.5523 10.4477 17 11 17H17.5C18.0523 17 18.5 16.5523 18.5 16C18.5 15.4477 18.0523 15 17.5 15H11ZM6.5 11C5.94772 11 5.5 11.4477 5.5 12C5.5 12.5523 5.94772 13 6.5 13H8C8.55228 13 9 12.5523 9 12C9 11.4477 8.55228 11 8 11H6.5ZM11 11C10.4477 11 10 11.4477 10 12C10 12.5523 10.4477 13 11 13H17.5C18.0523 13 18.5 12.5523 18.5 12C18.5 11.4477 18.0523 11 17.5 11H11ZM6.5 7C5.94772 7 5.5 7.44772 5.5 8C5.5 8.55228 5.94772 9 6.5 9H8C8.55228 9 9 8.55228 9 8C9 7.44772 8.55228 7 8 7H6.5ZM11 7C10.4477 7 10 7.44772 10 8C10 8.55228 10.4477 9 11 9H17.5C18.0523 9 18.5 8.55228 18.5 8C18.5 7.44772 18.0523 7 17.5 7H11Z" fill="#424138"/>
</svg>
